<svg width="32" height="32" viewBox="0 0 32 32" fill="none" xmlns="http://www.w3.org/2000/svg">
<g clip-path="url(#clip0_1_664)">
<circle cx="16" cy="16" r="16" fill="#D5E0F0"/>
<path fill-rule="evenodd" clip-rule="evenodd" d="M23.4678 14.7498C23.4678 14.9087 23.4242 15.0675 23.3361 15.2099C21.0571 18.9144 19.1043 21.6207 16.1318 25.1964C15.847 25.5384 15.4535 25.5613 15.1801 25.469C14.9061 25.3767 14.6077 25.1198 14.5891 24.6761C14.5085 22.7852 14.4719 20.8947 14.4959 19.0027C14.5 18.6804 14.2392 18.4165 13.9168 18.4179C12.4952 18.4239 11.0738 18.4094 9.65238 18.3849C9.32966 18.3792 9.04415 18.2067 8.89031 17.9248C8.73717 17.645 8.74576 17.3158 8.9132 17.0439C11.1923 13.3401 13.1451 10.6332 16.1175 7.05748C16.4016 6.71544 16.7959 6.69254 17.0692 6.78485C17.3426 6.87715 17.6417 7.13404 17.6603 7.57769C17.7408 9.46916 17.7776 11.3602 17.7535 13.2527C17.7494 13.5745 18.0092 13.8381 18.331 13.8372C19.7534 13.8334 21.1754 13.8446 22.5977 13.8697C22.9204 13.8754 23.2052 14.0471 23.359 14.3291C23.432 14.4622 23.4678 14.606 23.4678 14.7498Z" fill="white"/>
</g>
<defs>
<clipPath id="clip0_1_664">
<rect width="32" height="32" rx="16" fill="white"/>
</clipPath>
</defs>
</svg>
