<?xml version="1.0" encoding="UTF-8"?>
<svg version="1.1" xmlns="http://www.w3.org/2000/svg" width="1400" height="1400">
<path d="M0 0 C462 0 924 0 1400 0 C1400 462 1400 924 1400 1400 C938 1400 476 1400 0 1400 C0 938 0 476 0 0 Z " fill="#06C9C1" transform="translate(0,0)"/>
<path d="M0 0 C0.73734375 0.45503906 1.4746875 0.91007813 2.234375 1.37890625 C15.68280133 10.02109968 25.61128983 21.75192519 29.61756897 37.55194092 C31.94954364 48.99060412 31.41407513 60.71219007 31.37410367 72.33396721 C31.3651693 75.9113267 31.37377735 79.48865083 31.38031006 83.06600952 C31.38942484 89.25142084 31.38817004 95.4367578 31.38012505 101.62216949 C31.36884624 110.57589137 31.37797573 119.52950835 31.39268685 128.48322114 C31.4164065 143.02787479 31.42981643 157.57251544 31.43383789 172.1171875 C31.43408276 172.98588812 31.43432763 173.85458873 31.43457992 174.74961361 C31.4371273 184.44713036 31.4376916 194.1446461 31.43664551 203.84216309 C31.43631244 207.36287435 31.43602706 210.88358561 31.43579102 214.40429688 C31.43572823 215.27314141 31.43566544 216.14198595 31.43560075 217.03715912 C31.4349955 231.53573809 31.4498906 246.034257 31.47662407 260.53281093 C31.49240404 269.46255265 31.49471369 278.39210013 31.47949005 287.32184383 C31.47001286 293.438636 31.47479916 299.55531115 31.49070387 305.67208961 C31.4993823 309.19749872 31.5015768 312.72259661 31.48617744 316.24798965 C31.46959162 320.07557403 31.48401954 323.90269634 31.50120544 327.73028564 C31.49139867 328.83554635 31.48159189 329.94080706 31.47148794 331.07956052 C31.56241836 340.88930008 34.07310535 349.1010866 41.01054096 356.25757885 C50.63124376 364.6836463 61.50749922 363.70335119 73.57348633 363.62768555 C75.66222267 363.63286908 77.75095449 363.64027273 79.8396759 363.64971924 C84.32386551 363.66524547 88.80768112 363.66513788 93.29187965 363.65271568 C100.39120966 363.63311883 107.49020946 363.6484066 114.58952332 363.66816711 C125.82539237 363.69529018 137.06112625 363.69881363 148.29702157 363.69239408 C168.40154214 363.68145362 188.50602143 363.7061584 208.61050051 363.74614173 C215.65851906 363.75916895 222.70641361 363.7604975 229.75443804 363.7520088 C234.1505121 363.74836749 238.54655488 363.75270307 242.94262505 363.7588501 C244.97060895 363.75992966 246.99859818 363.75760811 249.02657318 363.7515049 C271.53852909 363.68704553 290.57277153 365.56687901 307.68359375 381.66015625 C318.08868986 392.17053157 325.19070036 405.65544268 325.27880859 420.64526367 C325.26930176 421.40170166 325.25979492 422.15813965 325.25 422.9375 C325.24178223 423.73454346 325.23356445 424.53158691 325.22509766 425.3527832 C324.96015511 439.24802268 319.83823834 452.01807278 312.4296875 463.6875 C310.51068995 466.79145231 308.9456447 470.02901822 307.34375 473.3046875 C304.69963116 478.60829797 301.83172831 483.79489408 299 489 C298.20529297 490.46373047 298.20529297 490.46373047 297.39453125 491.95703125 C294.29421498 497.65555602 291.15825275 503.33342433 288 509 C287.16644482 510.49987673 286.33311296 511.99987759 285.5 513.5 C285.08621094 514.24378906 284.67242188 514.98757813 284.24609375 515.75390625 C283.42223269 517.23892227 282.60185575 518.72587714 281.78515625 520.21484375 C279.61978934 524.15124558 277.39280513 528.03363764 275.0625 531.875 C272.42647643 536.23250836 269.98223954 540.67204476 267.5625 545.15234375 C264.81341693 550.16254765 261.89620488 555.07392226 259 560 C257.8120056 562.04137903 256.62450159 564.08304352 255.4375 566.125 C251.87328623 572.23508074 248.2415889 578.30291365 244.57421875 584.3515625 C240.25691893 591.49663552 236.12123349 598.74077146 232 606 C231.34 606 230.68 606 230 606 C229.89300781 606.57105469 229.78601563 607.14210938 229.67578125 607.73046875 C228.89916802 610.33863225 227.7483434 612.08780421 226.1875 614.3125 C222.73316986 619.34902931 219.64680879 624.48581502 217 630 C216.34 630 215.68 630 215 630 C214.87939209 630.5868457 214.75878418 631.17369141 214.63452148 631.77832031 C213.9830379 634.0593902 213.15588473 635.57955751 211.84765625 637.546875 C211.40671631 638.2176709 210.96577637 638.8884668 210.51147461 639.57958984 C210.03331299 640.2958252 209.55515137 641.01206055 209.0625 641.75 C208.04311936 643.29872187 207.02491297 644.84821721 206.0078125 646.3984375 C205.49637695 647.17670898 204.98494141 647.95498047 204.45800781 648.75683594 C202.78662116 651.32828614 201.16968712 653.92909321 199.56420898 656.54199219 C194.77450399 664.33421431 189.78182524 671.99407253 184.73855591 679.62384033 C183.91398747 680.87289339 183.09177342 682.12350394 182.27194214 683.37567139 C181.11523399 685.14051121 179.949563 686.89907797 178.78125 688.65625 C178.10126953 689.68556641 177.42128906 690.71488281 176.72070312 691.77539062 C176.15287109 692.50951172 175.58503906 693.24363281 175 694 C174.34 694 173.68 694 173 694 C173 694.99 173 695.98 173 697 C172.34 697 171.68 697 171 697 C170.773125 697.66 170.54625 698.32 170.3125 699 C168.6121185 702.88658628 166.60376916 706.63679817 164 710 C163.34 710 162.68 710 162 710 C161.731875 710.721875 161.46375 711.44375 161.1875 712.1875 C160.00098638 714.99766383 158.72514361 717.48416557 157 720 C156.34 720 155.68 720 155 720 C154.690625 720.78375 154.38125 721.5675 154.0625 722.375 C153 725 153 725 152 727 C151.34 727 150.68 727 150 727 C149.87625 727.598125 149.7525 728.19625 149.625 728.8125 C149 731 149 731 147 734 C146.34 734 145.68 734 145 734 C144.690625 734.78375 144.38125 735.5675 144.0625 736.375 C143 739 143 739 142 741 C141.34 741 140.68 741 140 741 C139.7525 741.70125 139.505 742.4025 139.25 743.125 C137.82819762 746.39514548 136.12753712 749.141122 134 752 C133.34 752 132.68 752 132 752 C131.75378906 752.71027344 131.50757813 753.42054688 131.25390625 754.15234375 C129.84041128 757.36243046 128.07936722 759.78600546 125.9375 762.5625 C125.12221862 763.62746853 124.30711946 764.69257657 123.4921875 765.7578125 C123.07678711 766.29696289 122.66138672 766.83611328 122.23339844 767.39160156 C120.31858494 769.88859113 118.44296837 772.41459404 116.5625 774.9375 C112.90754676 779.8150383 109.20147687 784.65053801 105.46704102 789.46728516 C103.22852693 792.36418574 101.06976358 795.29308019 99 798.3125 C98.34 799.199375 97.68 800.08625 97 801 C96.34 801 95.68 801 95 801 C94.731875 801.7425 94.46375 802.485 94.1875 803.25 C93.04723249 805.89061949 91.90619694 807.85552844 90 810 C89.34 810 88.68 810 88 810 C87.77957031 810.69351563 87.55914063 811.38703125 87.33203125 812.1015625 C85.67162348 815.7145319 83.29965084 818.42980532 80.6875 821.375 C77.59997736 824.92171581 74.58325501 828.41558976 71.9375 832.3125 C71.298125 833.199375 70.65875 834.08625 70 835 C69.34 835 68.68 835 68 835 C67.79503906 835.67804687 67.59007812 836.35609375 67.37890625 837.0546875 C65.5197887 841.02572046 62.8557549 843.88575775 59.9375 847.125 C58.74880217 848.46899361 57.56130659 849.81405149 56.375 851.16015625 C55.79492188 851.8164502 55.21484375 852.47274414 54.6171875 853.14892578 C52.49870204 855.57379848 50.46154568 858.05848761 48.4375 860.5625 C44.52859994 865.38945365 40.50001875 870.10200148 36.44335938 874.80444336 C33.37969489 878.36424587 30.38402789 881.96687771 27.4375 885.625 C23.82353745 890.08200264 20.00310167 894.31254622 16.09448242 898.5090332 C12.22076561 902.69270174 8.64301638 907.07996708 5.0703125 911.5234375 C2.6789729 914.3840211 0.11986288 916.98169641 -2.56640625 919.5625 C-4.15558695 921.08693982 -4.15558695 921.08693982 -5.8125 923.4375 C-6.204375 923.953125 -6.59625 924.46875 -7 925 C-7.66 925 -8.32 925 -9 925 C-9.22171875 925.54011719 -9.4434375 926.08023438 -9.671875 926.63671875 C-11.43310394 929.77067025 -13.79361738 932.22101225 -16.25 934.8125 C-19.2625703 938.02006963 -22.19834343 941.18978314 -24.875 944.6875 C-31.76079835 952.7837701 -41.91412666 958.19578637 -52 961 C-52.74636719 961.22300781 -53.49273438 961.44601562 -54.26171875 961.67578125 C-69.84607365 965.78870795 -85.65788311 961.62172543 -99.26953125 953.7421875 C-102.48915988 951.6878894 -105.29872585 949.70127415 -108 947 C-108 946.34 -108 945.68 -108 945 C-108.66 945 -109.32 945 -110 945 C-122.28341921 930.53640682 -126.15588201 915.70279745 -126.13803101 897.09536743 C-126.14085229 895.89925571 -126.14367357 894.70314399 -126.14658034 893.47078645 C-126.15345752 890.16330113 -126.15595097 886.85586497 -126.15663147 883.54837608 C-126.15847713 879.97637176 -126.16608728 876.40437944 -126.17311096 872.8323822 C-126.18461893 866.64578019 -126.19287243 860.45918088 -126.19923019 854.27257156 C-126.20957327 844.49048323 -126.23014068 834.70842865 -126.25234985 824.92636108 C-126.2598289 821.57719623 -126.26724271 818.22803124 -126.27463722 814.8788662 C-126.27648779 814.04194931 -126.27833835 813.20503243 -126.280245 812.34275443 C-126.30115846 802.82290727 -126.31999383 793.3030564 -126.33789062 783.78320312 C-126.33952881 782.9132723 -126.34116699 782.04334148 -126.34285481 781.14704911 C-126.369145 767.04685235 -126.38778722 752.94665297 -126.40448253 738.84644206 C-126.42191126 724.36051727 -126.45076296 709.87464377 -126.4893719 695.38875997 C-126.51274801 686.45875892 -126.52676431 677.52884148 -126.52869953 668.59880958 C-126.53081107 662.47822328 -126.54375832 656.35772014 -126.56517886 650.23717119 C-126.57718877 646.70794461 -126.58437195 643.17888313 -126.57846642 639.64963722 C-126.57217169 635.81918028 -126.58902496 631.98901927 -126.60800171 628.15859985 C-126.60247201 627.04954241 -126.59694232 625.94048497 -126.59124506 624.79781973 C-126.67872966 614.56235942 -128.70939293 607.45033275 -135.8046875 599.94921875 C-142.2513212 594.22525039 -149.15073227 592.85099883 -157.53594971 592.86869812 C-158.41814391 592.86658241 -159.30033811 592.86446669 -160.20926547 592.86228687 C-163.17760859 592.85627589 -166.14590933 592.85728783 -169.11425781 592.8581543 C-171.23811923 592.85512334 -173.36197999 592.85160207 -175.48583984 592.84762573 C-180.06770144 592.83972843 -184.64955522 592.83458855 -189.23142242 592.83133507 C-196.48607261 592.82542579 -203.74067369 592.80888385 -210.99530029 592.78999329 C-213.47964856 592.78365541 -215.96399686 592.77732979 -218.44834518 592.77101612 C-219.69279577 592.76785031 -220.93724635 592.7646845 -222.21940756 592.76142275 C-239.11078106 592.71937392 -256.00213237 592.68640027 -272.89355469 592.67407227 C-284.28293005 592.6656744 -295.67218449 592.64311568 -307.06149936 592.6047166 C-313.08539292 592.58500619 -319.1091059 592.57253454 -325.13303375 592.57755089 C-330.80974256 592.58222005 -336.48611015 592.56826831 -342.16275024 592.54053879 C-344.23663971 592.53366379 -346.31056473 592.53346026 -348.38445282 592.54073906 C-369.39333313 592.60697613 -387.81051613 589.17571905 -403.3046875 573.859375 C-416.14286725 560.23974083 -420.71645861 545.03688334 -420.3046875 526.71484375 C-419.51545545 510.35295462 -409.39810852 495.35420274 -401.56518555 481.41992188 C-399.32707203 477.43074545 -397.17876007 473.43255461 -395.1875 469.3125 C-391.81106519 462.41696412 -387.96362266 455.79194496 -384.1652832 449.12329102 C-380.32500524 442.37228096 -376.57110015 435.58088233 -372.875 428.75 C-367.43694081 418.72112838 -361.77249459 408.8393804 -356 399 C-355.20555499 397.63942461 -354.4112793 396.27875033 -353.6171875 394.91796875 C-331.57483167 357.22175011 -308.53336734 320.10153978 -284.22070312 283.82519531 C-283.01272749 282.01903015 -281.81013618 280.20940546 -280.609375 278.3984375 C-265.25118663 255.24747134 -249.37485655 232.44304261 -233 210 C-232.17314697 208.86594727 -232.17314697 208.86594727 -231.32958984 207.70898438 C-222.67462891 195.85615642 -213.83539935 184.15034346 -204.91210938 172.49853516 C-203.09972247 170.13030641 -201.29125718 167.75914891 -199.484375 165.38671875 C-189.52076715 152.3112135 -179.373243 139.40830308 -168.984375 126.66796875 C-166.65838912 123.81407387 -164.35290443 120.94508165 -162.0625 118.0625 C-153.63759655 107.50919989 -145.01874691 97.1142534 -136.19287109 86.89428711 C-133.19248416 83.41397928 -130.26253233 79.88778084 -127.375 76.3125 C-123.56974022 71.62117792 -119.54410309 67.17672545 -115.453125 62.734375 C-113.12283732 60.13692058 -110.92752832 57.47594286 -108.75 54.75 C-103.86920354 48.69677023 -98.55239055 43.091697 -93.22265625 37.4375 C-90.33311056 34.3689559 -87.5355458 31.23625075 -84.7890625 28.0390625 C-81.83588439 24.67321322 -78.78142551 21.39888108 -75.72973633 18.12231445 C-73.6034161 15.82374302 -71.74208151 13.61312226 -70 11 C-69.34 11 -68.68 11 -68 11 C-68 10.34 -68 9.68 -68 9 C-49.84302375 -7.38634913 -21.76558168 -13.58062554 0 0 Z " fill="#FEFEFE" transform="translate(744,223)"/>
</svg>
